<?xml version="1.0" encoding="UTF-8" standalone="no"?>
<svg
   xmlns:dc="http://purl.org/dc/elements/1.1/"
   xmlns:cc="http://creativecommons.org/ns#"
   xmlns:rdf="http://www.w3.org/1999/02/22-rdf-syntax-ns#"
   xmlns:svg="http://www.w3.org/2000/svg"
   xmlns="http://www.w3.org/2000/svg"
   xmlns:sodipodi="http://sodipodi.sourceforge.net/DTD/sodipodi-0.dtd"
   xmlns:inkscape="http://www.inkscape.org/namespaces/inkscape"
   version="1.1"
   id="svg1144"
   width="503.612"
   height="504.16852"
   viewBox="0 0 503.612 504.16852"
   sodipodi:docname="thumbsside.svg"
   inkscape:version="1.0beta2 (2b71d25, 2019-12-03)">
  <metadata
     id="metadata1150">
    <rdf:RDF>
      <cc:Work
         rdf:about="">
        <dc:format>image/svg+xml</dc:format>
        <dc:type
           rdf:resource="http://purl.org/dc/dcmitype/StillImage" />
        <dc:title></dc:title>
      </cc:Work>
    </rdf:RDF>
  </metadata>
  <defs
     id="defs1148" />
  <sodipodi:namedview
     pagecolor="#ffffff"
     bordercolor="#666666"
     inkscape:document-rotation="0"
     borderopacity="1"
     objecttolerance="10"
     gridtolerance="10"
     guidetolerance="10"
     inkscape:pageopacity="0"
     inkscape:pageshadow="2"
     inkscape:window-width="1920"
     inkscape:window-height="987"
     id="namedview1146"
     showgrid="false"
     inkscape:zoom="1.2170134"
     inkscape:cx="151.72987"
     inkscape:cy="280.16383"
     inkscape:window-x="1280"
     inkscape:window-y="23"
     inkscape:window-maximized="0"
     inkscape:current-layer="g1152" />
  <g
     inkscape:groupmode="layer"
     inkscape:label="Image"
     id="g1152"
     transform="translate(-34.089853,-43.521322)">
    <path
       style="opacity:1;mix-blend-mode:normal;fill:#ff9955;fill-opacity:1;fill-rule:nonzero;stroke:none;stroke-width:0.48"
       d="m 537.20842,280.46958 c -3.78096,-40.44384 -14.31312,-77.2848 -34.34208,-112.8 -12.024,-21.32065 -28.22975,-40.81825 -46.20815,-57.34753 C 380.10538,39.938157 265.75691,23.649077 172.62635,69.886367 c -24.09216,11.96112 -46.13424,28.056 -65.28,46.919523 -55.958402,55.13137 -79.195202,131.78017 -72.379202,208.78369 2.8512,32.25168 14.4768,64.3992 29.8848,92.64 14.3712,26.34624 34.084802,50.25793 56.987042,69.63361 91.28496,77.2272 230.15807,80.3232 322.94736,3.52272 17.03232,-14.09808 32.66688,-30.09984 45.44783,-48.19633 16.34064,-23.136 29.16864,-48.59664 37.06176,-75.84 8.00064,-27.6144 12.60509,-58.08288 9.91248,-86.88 m -118.6296,94.0824 c 1.01808,4.83312 0.28752,10.43376 0.28752,15.3576 v 30.24 c 0,4.78608 1.39296,11.99472 -2.54064,15.5688 -5.3424,4.85424 -19.45584,2.1912 -26.25936,2.1912 h -72.48 -53.27999 c -5.44704,0 -15.61392,1.8024 -17.4624,-5.29008 -1.2144,-4.6608 -0.2976,-10.55136 -0.2976,-15.34992 v -31.68 c 0,-4.67088 -1.42128,-11.99136 2.60544,-15.36816 2.6304,-2.20608 6.18336,-1.91088 9.39456,-1.91184 h 18.24 74.39999 50.88 c 5.9328,0 14.892,-1.45008 16.51248,6.2424 M 230.70635,246.86958 v -47.04 c 0,-10.05936 -0.59856,-20.2704 0.8952,-30.24 1.70496,-11.37697 7.34784,-22.95601 18.7848,-27.12385 8.15472,-2.97168 17.60688,-1.97328 24.47904,3.47376 2.96592,2.35056 5.8632,7.66224 9.56256,8.712 2.98319,0.84672 6.60335,-3.97104 8.59199,-5.68416 4.38528,-3.77664 9.612,-6.03216 15.4464,-5.72496 6.08064,0.31968 11.95584,2.91024 16.23792,7.22256 2.20032,2.21568 4.64544,7.5168 8.03424,7.9584 2.65776,0.34656 6.0624,-2.5944 8.36784,-3.67728 4.45104,-2.09088 9.58128,-2.94672 14.4,-1.7928 4.74912,1.13712 8.3736,3.82992 11.45712,7.54752 1.65072,1.99008 3.54816,6.21889 6.3792,6.63409 2.98848,0.43824 6.72672,-2.60736 9.52368,-3.50449 6.72288,-2.15568 15.29472,-0.083 19.73664,5.50465 4.47744,5.63232 4.73904,13.25136 4.74336,20.13456 v 26.4 87.36 c 0,13.83936 2.36208,30.16416 -0.77664,43.68 -2.2872,9.84912 -12.42576,8.64 -20.34336,8.64 h -61.44 -53.27999 c -6.76224,0 -16.84992,1.85328 -23.04,-1.19232 -3.92544,-1.93152 -6.78672,-5.73552 -9.68592,-8.88768 -5.92032,-6.43632 -11.57376,-13.08624 -17.3136,-19.68 -17.03328,-19.5672 -34.67376,-39.53232 -56.04048,-54.50064 -12.5256,-8.7744 -27.30576,-14.93232 -41.76,-19.7904 -9.02448,-3.03312 -18.312,-5.36832 -19.512,-16.42896 -1.992,-18.33456 18.4608,-26.87136 33.432,-26.88 24.87792,-0.0139 47.65728,12.84816 68.64,24.98496 7.84752,4.53888 15.8544,11.02848 24.48,13.89504 z"
       id="path1717"
       inkscape:connector-curvature="0"
       inkscape:export-xdpi="200"
       inkscape:export-ydpi="200" />
  </g>
</svg>
