<?xml version="1.0" encoding="UTF-8" standalone="no"?>
<svg
   xmlns:dc="http://purl.org/dc/elements/1.1/"
   xmlns:cc="http://creativecommons.org/ns#"
   xmlns:rdf="http://www.w3.org/1999/02/22-rdf-syntax-ns#"
   xmlns:svg="http://www.w3.org/2000/svg"
   xmlns="http://www.w3.org/2000/svg"
   xmlns:sodipodi="http://sodipodi.sourceforge.net/DTD/sodipodi-0.dtd"
   xmlns:inkscape="http://www.inkscape.org/namespaces/inkscape"
   inkscape:version="1.0beta2 (2b71d25, 2019-12-03)"
   sodipodi:docname="23733608.jpg"
   viewBox="0 0 502.40245 504.47961"
   height="504.47961"
   width="502.40244"
   id="svg917"
   version="1.1">
  <metadata
     id="metadata923">
    <rdf:RDF>
      <cc:Work
         rdf:about="">
        <dc:format>image/svg+xml</dc:format>
        <dc:type
           rdf:resource="http://purl.org/dc/dcmitype/StillImage" />
        <dc:title></dc:title>
      </cc:Work>
    </rdf:RDF>
  </metadata>
  <defs
     id="defs921">
    <clipPath
       id="clipPath931"
       clipPathUnits="userSpaceOnUse">
      <rect
         y="170.57835"
         x="92.058159"
         height="588.90143"
         width="544.2262"
         id="rect933"
         style="fill:#999999;fill-rule:evenodd;stroke:#999999;stroke-width:2;stroke-miterlimit:10" />
    </clipPath>
  </defs>
  <sodipodi:namedview
     inkscape:current-layer="g925"
     inkscape:window-maximized="0"
     inkscape:window-y="23"
     inkscape:window-x="1280"
     inkscape:cy="234.11645"
     inkscape:cx="400.91368"
     inkscape:zoom="0.73866348"
     showgrid="false"
     id="namedview919"
     inkscape:window-height="987"
     inkscape:window-width="1920"
     inkscape:pageshadow="2"
     inkscape:pageopacity="0"
     guidetolerance="10"
     gridtolerance="10"
     objecttolerance="10"
     borderopacity="1"
     inkscape:document-rotation="0"
     bordercolor="#666666"
     pagecolor="#ffffff" />
  <g
     transform="translate(-265.75295,-200.59437)"
     id="g925"
     inkscape:label="Image"
     inkscape:groupmode="layer">
    <path
       inkscape:export-ydpi="200"
       inkscape:export-xdpi="200"
       inkscape:export-filename="/Users/rosscallaghan/OneDrive - University College London/UCL/Thesis/figures/thumbsup.png"
       sodipodi:nodetypes="cccccccccccccccscccccsccccccccccscscscscsc"
       inkscape:connector-curvature="0"
       id="path937"
       d="m 499.66611,201.69403 c -56.80533,7.45867 -108.52533,24.39333 -151.99999,63.66133 -118.12933,106.69734 -107.4596,305.06934 25.33333,395.31467 24.42133,16.59733 51.32667,29.088 80,36.28933 30.03467,7.544 61.232,10.14667 92,6.45467 116.54667,-13.98267 214.40797,-110.09067 222.54667,-228.952 8.6507,-126.304 -75.6307,-243.15333 -201.21334,-268.26667 -21.28,-4.25466 -45.00133,-7.34533 -66.66667,-4.50133 m 65.33334,196.768 c 26.71066,0 66.15467,-7.272 90.66667,4.43733 20.5573,9.82 20.82,39.16 0,48.896 14.1573,14.46534 20.1653,36.46267 -2.6667,46.66667 4.0787,9.79733 10.3694,20.18533 3.988,30.64667 -2.52,4.132 -7.384,6.56 -9.5666,10.80666 -4.592,8.93467 6.2893,19.28267 -2.7934,28.928 -8.06,8.56267 -22.328,6.952 -32.9613,6.952 h -80.00001 -51.99999 c -6.376,-0.003 -15.7,0.78667 -20.36267,-4.57333 -4.332,-4.97733 -3.63467,-13.31467 -3.63733,-19.42667 v -41.33333 -64 c 0,-9.42933 -2.11467,-21.94133 2.09733,-30.66133 4.62,-9.568 16.75867,-17.004 24.56933,-23.93867 18.47867,-16.40267 37.53467,-32.61867 52.95333,-52.06667 10.756,-13.568 17.74,-29.23066 23.81334,-45.33333 2.888,-7.65867 4.12933,-17.788 12.58666,-21.32133 20.51734,-8.57067 32.44,15.42266 33.17467,31.988 1.448,32.65466 -23.672,66.88666 -39.86133,93.33333 m -182.66,15.12533 c 13.63333,-2.84933 30.076,-0.48133 43.99333,-0.45866 4.85334,0.008 11.58267,-0.65334 15.196,3.352 4.93067,5.46533 2.13734,20.392 2.13734,27.31466 v 73.33334 52 c 0,5.68933 1.708,14.95466 -5.412,16.90933 -13.61067,3.73867 -32.46667,0.424 -46.588,0.424 -4.408,0 -11.74934,1.308 -15.196,-2.13733 -4.988,-4.98934 -2.13734,-20.62 -2.13734,-27.196 v -77.33334 -49.33333 c 0,-7.312 -0.84933,-15.024 8.00667,-16.87467"
       style="fill:#05bd5a;fill-opacity:1;stroke:none;stroke-width:1.33333" />
  </g>
</svg>
