<?xml version="1.0" encoding="UTF-8" standalone="no"?>
<svg
   xmlns:dc="http://purl.org/dc/elements/1.1/"
   xmlns:cc="http://creativecommons.org/ns#"
   xmlns:rdf="http://www.w3.org/1999/02/22-rdf-syntax-ns#"
   xmlns:svg="http://www.w3.org/2000/svg"
   xmlns="http://www.w3.org/2000/svg"
   xmlns:sodipodi="http://sodipodi.sourceforge.net/DTD/sodipodi-0.dtd"
   xmlns:inkscape="http://www.inkscape.org/namespaces/inkscape"
   version="1.1"
   id="svg1144"
   width="503.612"
   height="504.16852"
   viewBox="0 0 503.612 504.16852"
   sodipodi:docname="thumbsdown.svg"
   inkscape:version="1.0beta2 (2b71d25, 2019-12-03)">
  <metadata
     id="metadata1150">
    <rdf:RDF>
      <cc:Work
         rdf:about="">
        <dc:format>image/svg+xml</dc:format>
        <dc:type
           rdf:resource="http://purl.org/dc/dcmitype/StillImage" />
        <dc:title />
      </cc:Work>
    </rdf:RDF>
  </metadata>
  <defs
     id="defs1148" />
  <sodipodi:namedview
     pagecolor="#ffffff"
     bordercolor="#666666"
     inkscape:document-rotation="0"
     borderopacity="1"
     objecttolerance="10"
     gridtolerance="10"
     guidetolerance="10"
     inkscape:pageopacity="0"
     inkscape:pageshadow="2"
     inkscape:window-width="1920"
     inkscape:window-height="987"
     id="namedview1146"
     showgrid="false"
     inkscape:zoom="1.2170134"
     inkscape:cx="151.72987"
     inkscape:cy="280.16383"
     inkscape:window-x="1280"
     inkscape:window-y="23"
     inkscape:window-maximized="0"
     inkscape:current-layer="g1152" />
  <g
     inkscape:groupmode="layer"
     inkscape:label="Image"
     id="g1152"
     transform="translate(-34.089853,-43.521322)">
    <path
       style="opacity:1;mix-blend-mode:normal;fill-opacity:1;stroke:none;stroke-width:0.48;fill-rule:nonzero;fill:#d40000"
       d="m 270.75986,44.293013 c -40.44384,3.78096 -77.2848,14.31312 -112.8,34.34208 -21.32065,12.023999 -40.81825,28.229757 -57.34753,46.208157 -70.38389,76.55281 -86.67297,190.90128 -40.43568,284.03184 11.96112,24.09216 28.056,46.13424 46.91952,65.28 55.13137,55.9584 131.78017,79.1952 208.78369,72.3792 32.25168,-2.8512 64.3992,-14.4768 92.64,-29.8848 26.34624,-14.3712 50.25793,-34.0848 69.63361,-56.98704 77.2272,-91.28496 80.3232,-230.15807 3.52272,-322.94736 -14.09808,-17.03232 -30.09984,-32.66688 -48.19633,-45.447838 -23.136,-16.340639 -48.59664,-29.168639 -75.84,-37.061759 -27.6144,-8.00064 -58.08288,-12.605088 -86.88,-9.91248 m 94.0824,118.629607 c 4.83312,-1.01808 10.43376,-0.28752 15.3576,-0.28752 h 30.24 c 4.78608,0 11.99472,-1.39296 15.5688,2.54064 4.85424,5.3424 2.1912,19.45584 2.1912,26.25936 v 72.48 53.27999 c 0,5.44704 1.8024,15.61392 -5.29008,17.4624 -4.6608,1.2144 -10.55136,0.2976 -15.34992,0.2976 h -31.68 c -4.67088,0 -11.99136,1.42128 -15.36816,-2.60544 -2.20608,-2.6304 -1.91088,-6.18336 -1.91184,-9.39456 v -18.24 -74.39999 -50.88 c 0,-5.9328 -1.45008,-14.892 6.2424,-16.51248 m -127.6824,187.87247 h -47.04 c -10.05936,0 -20.2704,0.59856 -30.24,-0.8952 -11.37697,-1.70496 -22.95601,-7.34784 -27.12385,-18.7848 -2.97168,-8.15472 -1.97328,-17.60688 3.47376,-24.47904 2.35056,-2.96592 7.66224,-5.8632 8.712,-9.56256 0.84672,-2.98319 -3.97104,-6.60335 -5.68416,-8.59199 -3.77664,-4.38528 -6.03216,-9.612 -5.72496,-15.4464 0.31968,-6.08064 2.91024,-11.95584 7.22256,-16.23792 2.21568,-2.20032 7.5168,-4.64544 7.9584,-8.03424 0.34656,-2.65776 -2.5944,-6.0624 -3.67728,-8.36784 -2.09088,-4.45104 -2.94672,-9.58128 -1.7928,-14.4 1.13712,-4.74912 3.82992,-8.3736 7.54752,-11.45712 1.99008,-1.65072 6.21889,-3.54816 6.63409,-6.3792 0.43824,-2.98848 -2.60736,-6.72672 -3.50449,-9.52368 -2.15568,-6.72288 -0.083,-15.29472 5.50465,-19.73664 5.63232,-4.47744 13.25136,-4.73904 20.13456,-4.74336 h 26.4 87.36 c 13.83936,0 30.16416,-2.36208 43.68,0.77664 9.84912,2.2872 8.64,12.42576 8.64,20.34336 v 61.44 53.27999 c 0,6.76224 1.85328,16.84992 -1.19232,23.04 -1.93152,3.92544 -5.73552,6.78672 -8.88768,9.68592 -6.43632,5.92032 -13.08624,11.57376 -19.68,17.3136 -19.5672,17.03328 -39.53232,34.67376 -54.50064,56.04048 -8.7744,12.5256 -14.93232,27.30576 -19.7904,41.76 -3.03312,9.02448 -5.36832,18.312 -16.42896,19.512 -18.33456,1.992 -26.87136,-18.4608 -26.88,-33.432 -0.0139,-24.87792 12.84816,-47.65728 24.98496,-68.64 4.53888,-7.84752 11.02848,-15.8544 13.89504,-24.48 z"
       id="path1717"
       inkscape:connector-curvature="0"
       inkscape:export-xdpi="200"
       inkscape:export-ydpi="200" />
  </g>
</svg>
